<svg width="12" height="9" viewBox="0 0 12 9" fill="none" xmlns="http://www.w3.org/2000/svg">
<path d="M0.5 0.5V8.5M6.16467 4.50667V4.754C6.19133 6.73467 6.10133 7.42333 5.268 7.10333L5.06267 6.98267L4.89667 6.86733L4.54 6.592L3.87333 6.012L3.19133 5.43667L2.858 5.13467L2.70933 4.98333L2.53467 4.73067L2.49867 4.50667L2.53467 4.284L2.70933 4.03067L2.858 3.88L3.19133 3.578L3.87333 3.002L4.54 2.422L4.89667 2.14733L5.06267 2.032L5.268 1.91067C6.10133 1.59133 6.19133 2.27933 6.16467 4.26V4.50667ZM6.16467 4.50667H11.1667" stroke="#747A8B" stroke-linecap="round" stroke-linejoin="round"/>
</svg>
