<svg width="22" height="20" viewBox="0 0 22 20" fill="none" xmlns="http://www.w3.org/2000/svg">
<path d="M5.75 4.75012H15.5C17.607 4.75012 18.66 4.75012 19.417 5.25612C19.7443 5.47486 20.0253 5.75587 20.244 6.08312C20.73 6.81012 20.75 7.81012 20.75 9.75012M10.75 4.75012L10.117 3.48312C9.592 2.43312 9.112 1.37712 7.949 0.941122C7.44 0.750122 6.858 0.750122 5.694 0.750122C3.878 0.750122 2.97 0.750122 2.288 1.13012C1.80208 1.40126 1.40114 1.8022 1.13 2.28812C0.75 2.97012 0.75 3.87812 0.75 5.69412V8.75012C0.75 13.4641 0.75 15.8211 2.214 17.2851C3.514 18.5851 5.518 18.7321 9.25 18.7481M11.75 16.7501C11.75 16.7501 12.75 16.7501 13.75 18.7501C13.75 18.7501 16.927 13.7501 19.75 12.7501" stroke="#DB1F26" stroke-width="1.5" stroke-linecap="round" stroke-linejoin="round"/>
</svg>
