<svg width="22" height="22" viewBox="0 0 22 22" fill="none" xmlns="http://www.w3.org/2000/svg">
<path d="M8.477 0.75C5.217 0.75 3.585 0.75 2.453 1.548C2.13085 1.77392 1.8429 2.04503 1.598 2.353C0.75 3.419 0.75 4.953 0.75 8.023V10.568C0.75 13.531 0.75 15.013 1.219 16.196C1.973 18.099 3.567 19.599 5.589 20.309C6.846 20.75 8.419 20.75 11.569 20.75C13.367 20.75 14.267 20.75 14.985 20.498C16.14 20.092 17.051 19.235 17.482 18.148C17.75 17.472 17.75 16.625 17.75 14.932V14.25M13.75 6.25C13.75 6.25 14.25 6.25 14.75 7.25C14.75 7.25 16.338 4.75 17.75 4.25" stroke="#DB1F26" stroke-width="1.5" stroke-linecap="round" stroke-linejoin="round"/>
<path d="M20.75 5.75C20.75 7.07608 20.2232 8.34785 19.2855 9.28553C18.3479 10.2232 17.0761 10.75 15.75 10.75C14.4239 10.75 13.1521 10.2232 12.2145 9.28553C11.2768 8.34785 10.75 7.07608 10.75 5.75C10.75 4.42392 11.2768 3.15215 12.2145 2.21447C13.1521 1.27678 14.4239 0.75 15.75 0.75C17.0761 0.75 18.3479 1.27678 19.2855 2.21447C20.2232 3.15215 20.75 4.42392 20.75 5.75Z" stroke="#DB1F26" stroke-width="1.5" stroke-linecap="round"/>
<path d="M0.75 10.75C0.75 11.634 1.10115 12.4817 1.72621 13.1068C2.35127 13.7318 3.19903 14.083 4.083 14.083C4.749 14.083 5.534 13.967 6.181 14.14C6.46371 14.2161 6.72145 14.3651 6.92838 14.5723C7.13531 14.7794 7.28416 15.0372 7.36 15.32C7.533 15.967 7.417 16.752 7.417 17.418C7.41726 18.3018 7.76854 19.1493 8.39357 19.7741C9.0186 20.399 9.86621 20.75 10.75 20.75" stroke="#DB1F26" stroke-width="1.5" stroke-linecap="round" stroke-linejoin="round"/>
</svg>
