<svg width="22" height="20" viewBox="0 0 22 20" fill="none" xmlns="http://www.w3.org/2000/svg">
<path d="M5.75 4.75012H15.5C17.607 4.75012 18.66 4.75012 19.417 5.25612C19.7443 5.47486 20.0253 5.75587 20.244 6.08312C20.75 6.84012 20.75 7.89312 20.75 10.0001C20.75 13.5111 20.75 15.2671 19.907 16.5281C19.5421 17.0743 19.0732 17.5432 18.527 17.9081C17.268 18.7501 15.512 18.7501 12 18.7501H10.75C6.036 18.7501 3.679 18.7501 2.214 17.2851C0.75 15.8221 0.75 13.4651 0.75 8.75012V5.69412C0.75 3.87812 0.75 2.97012 1.13 2.28812C1.40114 1.8022 1.80208 1.40126 2.288 1.13012C2.97 0.750122 3.878 0.750122 5.694 0.750122C6.858 0.750122 7.44 0.750122 7.95 0.941122C9.113 1.37712 9.593 2.43412 10.118 3.48312L10.75 4.75012" stroke="#DB1F26" stroke-width="1.5" stroke-linecap="round" stroke-linejoin="round"/>
</svg>
