<svg width="19" height="22" viewBox="0 0 19 22" fill="none" xmlns="http://www.w3.org/2000/svg">
<path d="M11.75 17.7502H9.74999C6.92099 17.7502 5.50699 17.7502 4.62899 16.8712C3.74899 15.9932 3.74899 14.5782 3.74899 11.7502V6.75024C3.74899 3.92224 3.74899 2.50724 4.62899 1.62924C5.50599 0.750244 6.91999 0.750244 9.74899 0.750244H11.093C11.911 0.750244 12.319 0.750244 12.687 0.902244C13.054 1.05424 13.343 1.34424 13.921 1.92224L16.578 4.57824C17.156 5.15624 17.445 5.44624 17.598 5.81324C17.75 6.18124 17.75 6.58924 17.75 7.40724V11.7502C17.75 14.5782 17.75 15.9932 16.871 16.8712C15.993 17.7502 14.578 17.7502 11.75 17.7502Z" stroke="#DB1F26" stroke-width="1.5" stroke-linecap="round" stroke-linejoin="round"/>
<path d="M12.25 1.25024V2.25024C12.25 4.13624 12.25 5.07824 12.836 5.66424C13.421 6.25024 14.364 6.25024 16.25 6.25024H17.25M3.75 3.75024C2.95435 3.75024 2.19129 4.06631 1.62868 4.62892C1.06607 5.19153 0.75 5.95459 0.75 6.75024V14.7502C0.75 17.5782 0.75 18.9932 1.628 19.8712C2.507 20.7502 3.921 20.7502 6.75 20.7502H11.75C12.5456 20.7502 13.3087 20.4342 13.8713 19.8716C14.4339 19.309 14.75 18.5459 14.75 17.7502M7.25 9.75024H11.25M7.25 13.7502H14.25" stroke="#DB1F26" stroke-width="1.5" stroke-linecap="round" stroke-linejoin="round"/>
</svg>
