<svg width="13" height="15" viewBox="0 0 13 15" fill="none" xmlns="http://www.w3.org/2000/svg">
<path d="M0.5 5.83333C0.5 3.31933 0.5 2.062 1.33 1.28133C2.16 0.500667 3.49533 0.5 6.16667 0.5H6.682C8.85533 0.5 9.94333 0.5 10.698 1.032C10.914 1.184 11.106 1.36533 11.268 1.56867C11.8333 2.27933 11.8333 3.302 11.8333 5.34867V7.04533C11.8333 9.02067 11.8333 10.0087 11.5207 10.7973C11.018 12.066 9.95533 13.066 8.60733 13.5393C7.76933 13.8333 6.72067 13.8333 4.62067 13.8333C3.422 13.8333 2.822 13.8333 2.34333 13.6653C1.57333 13.3947 0.966 12.8233 0.678667 12.0987C0.5 11.648 0.5 11.0833 0.5 9.95467V5.83333Z" stroke="#7B9FC3" stroke-linecap="round" stroke-linejoin="round"/>
<path d="M11.8333 7.16671C11.8333 7.75602 11.5992 8.32119 11.1825 8.7379C10.7658 9.1546 10.2006 9.38871 9.61133 9.38871C9.16733 9.38871 8.644 9.31137 8.21267 9.42671C8.02427 9.47737 7.8525 9.57665 7.71456 9.7146C7.57661 9.85254 7.47733 10.0243 7.42667 10.2127C7.31133 10.644 7.38867 11.1674 7.38867 11.6114C7.38867 11.9032 7.33119 12.1921 7.21953 12.4617C7.10786 12.7313 6.94419 12.9762 6.73786 13.1826C6.53153 13.3889 6.28658 13.5526 6.01699 13.6642C5.7474 13.7759 5.45846 13.8334 5.16667 13.8334M3.5 3.83337H8.16667M3.5 6.50004H5.5" stroke="#7B9FC3" stroke-linecap="round" stroke-linejoin="round"/>
</svg>
