<svg width="20" height="22" viewBox="0 0 20 22" fill="none" xmlns="http://www.w3.org/2000/svg">
<path d="M10.75 16.75C10.75 16.75 11.75 16.75 12.75 18.75C12.75 18.75 15.927 13.75 18.75 12.75" stroke="#DB1F26" stroke-width="1.5" stroke-linecap="round" stroke-linejoin="round"/>
<path d="M8.75 20.75H8.477C5.217 20.75 3.585 20.75 2.453 19.952C2.13085 19.7261 1.8429 19.455 1.598 19.147C0.75 18.081 0.75 16.547 0.75 13.477V10.932C0.75 7.969 0.75 6.487 1.219 5.304C1.973 3.401 3.567 1.901 5.589 1.191C6.845 0.75 8.418 0.75 11.568 0.75C13.366 0.75 14.266 0.75 14.984 1.002C16.139 1.408 17.05 2.265 17.481 3.352C17.75 4.028 17.75 4.875 17.75 6.568V8.75" stroke="#DB1F26" stroke-width="1.5" stroke-linecap="round" stroke-linejoin="round"/>
<path d="M0.75 10.75C0.75 9.86603 1.10115 9.01827 1.72621 8.39321C2.35127 7.76815 3.19903 7.417 4.083 7.417C4.749 7.417 5.534 7.533 6.181 7.36C6.46371 7.28392 6.72145 7.13485 6.92838 6.92774C7.13531 6.72064 7.28416 6.46277 7.36 6.18C7.533 5.533 7.417 4.748 7.417 4.082C7.41726 3.19821 7.76854 2.3507 8.39357 1.72586C9.0186 1.10102 9.86621 0.75 10.75 0.75" stroke="#DB1F26" stroke-width="1.5" stroke-linecap="round" stroke-linejoin="round"/>
</svg>
