<svg width="14" height="15" viewBox="0 0 14 15" fill="none" xmlns="http://www.w3.org/2000/svg">
<path d="M4.83419 13.1667C5.36486 13.5813 6.06619 13.8333 6.83419 13.8333C7.60219 13.8333 8.30352 13.5813 8.83419 13.1667M0.520858 8.76267C0.378858 9.66467 1.01286 10.2907 1.78886 10.6027C4.76419 11.7993 8.90419 11.7993 11.8795 10.6027C12.6555 10.2907 13.2895 9.66467 13.1475 8.76267C13.0609 8.208 12.6295 7.74667 12.3102 7.296C11.8922 6.698 11.8509 6.04667 11.8502 5.35267C11.8509 2.67333 9.60552 0.5 6.83419 0.5C4.06286 0.5 1.81752 2.67333 1.81752 5.35333C1.81752 6.04667 1.77619 6.69867 1.35752 7.296C1.03886 7.74667 0.608191 8.208 0.520858 8.76267Z" stroke="#8597A8" stroke-linecap="round" stroke-linejoin="round"/>
</svg>
