<svg width="14" height="13" viewBox="0 0 14 13" fill="none" xmlns="http://www.w3.org/2000/svg">
<path d="M5.83333 8.722H6.39333C6.83467 8.722 7.05533 8.722 7.232 8.83867C7.40933 8.95467 7.508 9.164 7.70533 9.582L8.76667 11.8333L10.2333 7.16667L11.2947 9.418C11.492 9.836 11.5907 10.0453 11.768 10.1613C11.9453 10.2773 12.1653 10.278 12.6067 10.278H13.1667M0.5 7.16667C0.5 6.57736 0.734103 6.01218 1.15081 5.59548C1.56751 5.17877 2.13269 4.94467 2.722 4.94467H3.46267C3.80733 4.94467 3.97933 4.94467 4.12067 4.90667C4.30914 4.85594 4.48097 4.75657 4.61892 4.6185C4.75687 4.48043 4.8561 4.30852 4.90667 4.12C4.94467 3.97867 4.94467 3.80667 4.94467 3.462V2.722C4.94467 2.13269 5.17877 1.56751 5.59548 1.15081C6.01218 0.734103 6.57736 0.5 7.16667 0.5" stroke="#7B9FC3" stroke-linecap="round" stroke-linejoin="round"/>
</svg>
