<svg width="14" height="15" viewBox="0 0 14 15" fill="none" xmlns="http://www.w3.org/2000/svg">
<path d="M11.1667 5.16667V4.37867C11.1667 3.25 11.1667 2.68533 10.9987 2.23467C10.8651 1.8765 10.656 1.55123 10.3857 1.28092C10.1154 1.01062 9.79017 0.801586 9.432 0.668C8.98133 0.5 8.41667 0.5 7.288 0.5C5.31267 0.5 4.32467 0.5 3.536 0.794C2.90898 1.02769 2.33955 1.39349 1.86634 1.8666C1.39312 2.3397 1.02718 2.90904 0.793333 3.536C0.5 4.32467 0.5 5.31267 0.5 7.288V8.98467C0.5 11.0313 0.5 12.054 1.032 12.7647C1.18439 12.9682 1.36511 13.1489 1.56867 13.3013C2.27933 13.8333 3.302 13.8333 5.34867 13.8333H8.16667" stroke="#7B9FC3" stroke-linecap="round" stroke-linejoin="round"/>
<path d="M5.83333 8.722H6.39333C6.83467 8.722 7.05533 8.722 7.232 8.83867C7.40933 8.95467 7.508 9.164 7.70533 9.582L8.76667 11.8333L10.2333 7.16667L11.2947 9.418C11.492 9.836 11.5907 10.0453 11.768 10.1613C11.9453 10.2773 12.1653 10.278 12.6067 10.278H13.1667M0.5 7.16667C0.5 6.57736 0.734103 6.01218 1.15081 5.59548C1.56751 5.17877 2.13269 4.94467 2.722 4.94467H3.46267C3.80733 4.94467 3.97933 4.94467 4.12067 4.90667C4.30914 4.85594 4.48097 4.75657 4.61892 4.6185C4.75687 4.48043 4.8561 4.30852 4.90667 4.12C4.94467 3.97867 4.94467 3.80667 4.94467 3.462V2.722C4.94467 2.13269 5.17877 1.56751 5.59548 1.15081C6.01218 0.734103 6.57736 0.5 7.16667 0.5" stroke="#7B9FC3" stroke-linecap="round" stroke-linejoin="round"/>
</svg>
