<svg width="16" height="16" viewBox="0 0 16 16" fill="none" xmlns="http://www.w3.org/2000/svg">
<path fill-rule="evenodd" clip-rule="evenodd" d="M9.75199 12.1098L9.74066 12.1058L9.73066 12.1191L9.17066 12.9198L9.12199 12.9845C8.13933 14.2838 7.59333 15.0065 6.92399 15.0065L6.93066 14.9998C6.84399 14.9998 6.75733 14.9865 6.67066 14.9665C5.82399 14.7398 5.82399 13.8198 5.82399 11.9865V10.7531L5.43733 10.6198C2.63066 9.64646 1.23733 9.15979 1.16399 7.95312C1.09733 6.73646 2.43733 6.10312 5.10399 4.84246L5.12399 4.83312L10.004 2.52646C12.204 1.47979 13.3107 0.959789 14.204 1.61979C15.0973 2.27979 14.8973 3.47312 14.4973 5.84646L13.8573 9.64646L13.8527 9.67179C13.5887 11.2025 13.446 12.0291 12.7173 12.4531C12.464 12.5998 12.2107 12.6665 11.9173 12.6665L11.9107 12.6598C11.3573 12.6598 10.6893 12.4311 9.75199 12.1098ZM6.82399 11.0985V11.9865C6.82399 12.9065 6.82399 13.8531 6.96399 14.0265C7.13733 13.9598 7.76399 13.1331 8.36399 12.3331L8.76199 11.7678L6.82399 11.0985ZM5.54399 5.73312C3.48399 6.70646 2.13066 7.34646 2.15733 7.89312C2.19066 8.43312 3.60399 8.92646 5.74399 9.66646L6.01666 9.76046L10.97 4.80646C11.1633 4.61312 11.4833 4.61312 11.6767 4.80646C11.87 4.99979 11.87 5.31979 11.6767 5.51312L7.06733 10.1231L10.0107 11.1398C11.304 11.5865 11.884 11.7731 12.204 11.5865C12.5173 11.3998 12.6307 10.8131 12.8573 9.49979L13.4973 5.69312L13.5053 5.64512C13.8007 3.86512 13.9933 2.70379 13.5973 2.41312C13.1933 2.11512 12.1647 2.59979 10.46 3.40312L10.424 3.41979L5.54399 5.72646V5.73312Z" fill="white"/>
</svg>
