<svg width="15" height="15" viewBox="0 0 15 15" fill="none" xmlns="http://www.w3.org/2000/svg">
<path d="M1.83334 9.1659V11.8326M7.16668 5.1659V11.8326M13.8333 13.8326H0.500009M12.5 7.83257V11.8326M2.90001 5.03257C2.79495 4.89249 2.66333 4.77448 2.51267 4.68527C2.362 4.59606 2.19524 4.5374 2.0219 4.51264C1.84857 4.48787 1.67205 4.4975 1.50243 4.54095C1.33282 4.58441 1.17342 4.66085 1.03334 4.7659C0.893266 4.87096 0.775253 5.00258 0.686043 5.15325C0.596833 5.30391 0.538172 5.47067 0.51341 5.64401C0.4634 5.99408 0.554503 6.34967 0.766676 6.63257C0.978849 6.91547 1.29471 7.10249 1.64478 7.1525C1.99485 7.20251 2.35044 7.11141 2.63334 6.89924C2.91624 6.68706 3.10327 6.3712 3.15328 6.02113C3.20328 5.67106 3.11218 5.31547 2.90001 5.03257ZM2.90001 5.03257L6.10001 2.63257M6.10001 2.63257C6.23631 2.81458 6.41691 2.95871 6.62461 3.05125C6.83232 3.1438 7.06025 3.18168 7.28673 3.1613C7.51321 3.14093 7.73071 3.06297 7.91856 2.93484C8.10642 2.8067 8.25838 2.63266 8.36001 2.42924M6.10001 2.63257C5.95772 2.44256 5.86873 2.21802 5.84224 1.98212C5.81575 1.74622 5.85272 1.50753 5.94933 1.2907C6.04594 1.07387 6.19868 0.886759 6.39178 0.748699C6.58489 0.61064 6.81135 0.526636 7.04777 0.505364C7.2842 0.484093 7.52201 0.526326 7.73666 0.6277C7.9513 0.729074 8.13499 0.885914 8.26875 1.08202C8.40251 1.27812 8.48149 1.50638 8.49753 1.74322C8.51358 1.98006 8.4661 2.21688 8.36001 2.42924M8.36001 2.42924L11.3067 3.90257C11.2283 4.05919 11.1816 4.22972 11.1691 4.4044C11.1567 4.57909 11.1787 4.75452 11.2341 4.92067C11.3459 5.25624 11.5864 5.53366 11.9027 5.6919C12.219 5.85015 12.5852 5.87626 12.9208 5.76449C13.2563 5.65271 13.5338 5.41222 13.692 5.0959C13.847 4.78006 13.8709 4.41576 13.7584 4.08239C13.646 3.74902 13.4063 3.4736 13.0917 3.31616C12.7771 3.15871 12.413 3.132 12.0787 3.24184C11.7445 3.35168 11.4672 3.58918 11.3073 3.90257" stroke="#7B9FC3" stroke-linecap="round" stroke-linejoin="round"/>
</svg>
