<svg width="12" height="12" viewBox="0 0 12 12" fill="none" xmlns="http://www.w3.org/2000/svg">
<path d="M2.00098 7H4.21148C4.67648 7 4.90898 7 4.97148 7.14C5.03298 7.28 4.87498 7.448 4.55848 7.784L2.73948 9.716C2.42298 10.052 2.26448 10.22 2.32648 10.36C2.38848 10.5 2.62148 10.5 3.08648 10.5H5.00098M2.00098 4.5L3.05398 2.1525C3.24898 1.7175 3.34598 1.5 3.50098 1.5C3.65598 1.5 3.75298 1.7175 3.94798 2.1525L5.00098 4.5M8.75098 10V2M8.75098 10C8.40098 10 7.74698 9.003 7.50098 8.75M8.75098 10C9.10098 10 9.75548 9.003 10.001 8.75" stroke="#8597A8" stroke-width="0.75" stroke-linecap="round" stroke-linejoin="round"/>
</svg>
