<svg width="15" height="13" viewBox="0 0 15 13" fill="none" xmlns="http://www.w3.org/2000/svg">
<path d="M0.5 6.5C0.5 3.67133 0.5 2.25733 1.476 1.37867C2.45333 0.5 4.024 0.5 7.16667 0.5C10.3093 0.5 11.8807 0.5 12.8567 1.37867C13.8327 2.25733 13.8333 3.672 13.8333 6.5C13.8333 9.328 13.8333 10.7427 12.8567 11.6213C11.8813 12.5 10.3093 12.5 7.16667 12.5C4.024 12.5 2.45267 12.5 1.476 11.6213C0.499333 10.7427 0.5 9.328 0.5 6.5Z" stroke="#7B9FC3" stroke-linecap="round" stroke-linejoin="round"/>
<path d="M3.16667 9.16671H5.83333M8.5 3.83337H11.1667M8.5 6.50004H11.1667M8.5 9.16671H11.1667M4.76667 3.83337H4.23333C3.73067 3.83337 3.47933 3.83337 3.32267 3.98937C3.16667 4.14671 3.16667 4.39737 3.16667 4.90004V5.43337C3.16667 5.93604 3.16667 6.18737 3.32267 6.34404C3.48 6.50004 3.73067 6.50004 4.23333 6.50004H4.76667C5.26933 6.50004 5.52067 6.50004 5.67733 6.34404C5.83333 6.18671 5.83333 5.93604 5.83333 5.43337V4.90004C5.83333 4.39737 5.83333 4.14604 5.67733 3.98937C5.52 3.83337 5.26933 3.83337 4.76667 3.83337Z" stroke="#7B9FC3" stroke-linecap="round" stroke-linejoin="round"/>
</svg>
