<svg width="18" height="22" viewBox="0 0 18 22" fill="none" xmlns="http://www.w3.org/2000/svg">
<path d="M16.75 11.75V9.407C16.75 8.589 16.75 8.181 16.598 7.813C16.446 7.446 16.157 7.156 15.578 6.578L10.842 1.842C10.343 1.343 10.094 1.094 9.784 0.946C9.71984 0.915181 9.65408 0.887808 9.587 0.864C9.264 0.75 8.911 0.75 8.206 0.75C4.961 0.75 3.338 0.75 2.239 1.636C2.01709 1.81494 1.81494 2.01709 1.636 2.239C0.75 3.34 0.75 4.961 0.75 8.206V12.75C0.75 16.521 0.75 18.407 1.922 19.578C2.985 20.642 4.636 20.74 7.75 20.75M9.75 1.25V1.75C9.75 4.578 9.75 5.993 10.629 6.871C11.507 7.75 12.922 7.75 15.75 7.75H16.25" stroke="#DB1F26" stroke-width="1.5" stroke-linecap="round" stroke-linejoin="round"/>
<path d="M16.75 20.7501L14.603 18.6031M14.603 18.6031C15.2457 17.9601 15.6068 17.0882 15.607 16.1791C15.6071 15.3857 15.3321 14.6169 14.8288 14.0036C14.3256 13.3903 13.6252 12.9705 12.8471 12.8157C12.069 12.6609 11.2613 12.7807 10.5616 13.1546C9.86196 13.5286 9.31361 14.1336 9.01002 14.8666C8.70643 15.5996 8.66639 16.4151 8.89672 17.1743C9.12706 17.9335 9.61351 18.5893 10.2732 19.03C10.9329 19.4707 11.725 19.6691 12.5145 19.5912C13.304 19.5134 14.0421 19.1642 14.603 18.6031Z" stroke="#DB1F26" stroke-width="1.5" stroke-linecap="round" stroke-linejoin="round"/>
</svg>
