<svg width="19" height="22" viewBox="0 0 19 22" fill="none" xmlns="http://www.w3.org/2000/svg">
<path d="M9.75 0.75H10.023C13.283 0.75 14.915 0.75 16.047 1.548C16.371 1.776 16.659 2.048 16.902 2.353C17.75 3.419 17.75 4.953 17.75 8.023V10.568C17.75 13.531 17.75 15.013 17.281 16.196C16.527 18.099 14.933 19.599 12.911 20.309C11.654 20.75 10.081 20.75 6.931 20.75C5.133 20.75 4.233 20.75 3.515 20.498C2.36 20.092 1.449 19.235 1.018 18.148C0.75 17.472 0.75 16.625 0.75 14.932V10.75" stroke="#DB1F26" stroke-width="1.5" stroke-linecap="round" stroke-linejoin="round"/>
<path d="M17.75 10.75C17.75 11.634 17.3988 12.4817 16.7738 13.1068C16.1487 13.7318 15.301 14.083 14.417 14.083C13.751 14.083 12.966 13.967 12.319 14.14C12.0364 14.216 11.7788 14.3649 11.5718 14.5718C11.3649 14.7788 11.216 15.0364 11.14 15.319C10.967 15.966 11.083 16.751 11.083 17.417C11.083 17.8547 10.9968 18.2881 10.8293 18.6925C10.6618 19.0969 10.4163 19.4643 10.1068 19.7738C9.79729 20.0833 9.42986 20.3288 9.02548 20.4963C8.62111 20.6638 8.1877 20.75 7.75 20.75M1.75 3.25C2.242 2.744 3.55 0.75 4.25 0.75M4.25 0.75C4.95 0.75 6.258 2.744 6.75 3.25M4.25 0.75V8.75" stroke="#DB1F26" stroke-width="1.5" stroke-linecap="round" stroke-linejoin="round"/>
</svg>
