<svg width="15" height="13" viewBox="0 0 15 13" fill="none" xmlns="http://www.w3.org/2000/svg">
<path d="M9.16667 5.83333C9.87391 5.83333 10.5522 5.55238 11.0523 5.05229C11.5524 4.55219 11.8333 3.87391 11.8333 3.16667C11.8333 2.45942 11.5524 1.78115 11.0523 1.28105C10.5522 0.780951 9.87391 0.5 9.16667 0.5M10.5 7.83333C11.3841 7.83333 12.2319 8.18452 12.857 8.80964C13.4821 9.43477 13.8333 10.2826 13.8333 11.1667C13.8333 11.5203 13.6929 11.8594 13.4428 12.1095C13.1928 12.3595 12.8536 12.5 12.5 12.5H11.5M7.83333 3.16667C7.83333 3.87391 7.55238 4.55219 7.05229 5.05229C6.55219 5.55238 5.87391 5.83333 5.16667 5.83333C4.45942 5.83333 3.78115 5.55238 3.28105 5.05229C2.78095 4.55219 2.5 3.87391 2.5 3.16667C2.5 2.45942 2.78095 1.78115 3.28105 1.28105C3.78115 0.780951 4.45942 0.5 5.16667 0.5C5.87391 0.5 6.55219 0.780951 7.05229 1.28105C7.55238 1.78115 7.83333 2.45942 7.83333 3.16667ZM6.5 7.83333H3.83333C2.94928 7.83333 2.10143 8.18452 1.47631 8.80964C0.851189 9.43477 0.5 10.2826 0.5 11.1667C0.5 11.5203 0.640476 11.8594 0.890524 12.1095C1.14057 12.3595 1.47971 12.5 1.83333 12.5H8.5C8.85362 12.5 9.19276 12.3595 9.44281 12.1095C9.69286 11.8594 9.83333 11.5203 9.83333 11.1667C9.83333 10.2826 9.48214 9.43477 8.85702 8.80964C8.2319 8.18452 7.38406 7.83333 6.5 7.83333Z" stroke="#7B9FC3" stroke-linecap="round" stroke-linejoin="round"/>
</svg>
